<?xml version="1.0" encoding="UTF-8"?>
<!DOCTYPE svg PUBLIC "-//W3C//DTD SVG 1.1//EN" "http://www.w3.org/Graphics/SVG/1.1/DTD/svg11.dtd">
<svg xmlns="http://www.w3.org/2000/svg" version="1.1" width="558px" height="448px" style="shape-rendering:geometricPrecision; text-rendering:geometricPrecision; image-rendering:optimizeQuality; fill-rule:evenodd; clip-rule:evenodd" xmlns:xlink="http://www.w3.org/1999/xlink">
<g><path style="opacity:0.909" fill="#010101" d="M 124.5,56.5 C 227.834,56.3333 331.167,56.5 434.5,57C 441.503,57.8713 448.169,59.538 454.5,62C 457.339,64.589 460.672,66.4223 464.5,67.5C 468.083,70.4482 471.416,73.6149 474.5,77C 478.38,77.8829 480.547,80.3829 481,84.5C 484.499,88.1829 487.499,92.1829 490,96.5C 490.16,100.287 490.826,103.954 492,107.5C 492.667,176.833 492.667,246.167 492,315.5C 491.058,324.45 487.392,332.116 481,338.5C 480.904,343.557 478.404,346.39 473.5,347C 472.21,349.292 470.543,351.292 468.5,353C 463.863,354.985 459.53,357.485 455.5,360.5C 449.096,363.15 442.429,364.983 435.5,366C 331.5,366.667 227.5,366.667 123.5,366C 116.412,365.285 109.746,363.452 103.5,360.5C 99.7884,356.976 95.4551,354.476 90.5,353C 89.1333,348.461 86.1333,345.961 81.5,345.5C 81.6602,343.801 81.4935,342.134 81,340.5C 78.5615,338.973 76.5615,336.973 75,334.5C 73.3809,330.859 71.7142,327.193 70,323.5C 69.8275,319.129 69.3275,314.796 68.5,310.5C 67.3334,243.836 67.1667,177.169 68,110.5C 68.5808,103.47 70.5808,96.8033 74,90.5C 79.86,83.941 85.36,77.1076 90.5,70C 95.4945,67.9167 100.161,65.25 104.5,62C 111.011,59.5562 117.678,57.7228 124.5,56.5 Z M 147.5,77.5 C 235.836,77.1667 324.169,77.5 412.5,78.5C 412.709,79.086 413.043,79.586 413.5,80C 420.191,80.1691 426.858,80.6691 433.5,81.5C 436.28,82.7128 438.946,84.2128 441.5,86C 447.254,86.5462 452.254,88.7128 456.5,92.5C 463.285,97.812 467.785,104.479 470,112.5C 470.667,178.5 470.667,244.5 470,310.5C 468.938,313.029 468.105,315.696 467.5,318.5C 465.768,320.283 464.268,322.283 463,324.5C 460.387,326.369 458.221,328.703 456.5,331.5C 452.226,332.97 448.226,334.97 444.5,337.5C 443.914,337.291 443.414,336.957 443,336.5C 440.599,338.636 437.765,339.803 434.5,340C 433.833,340.667 433.167,341.333 432.5,342C 331.274,342.236 230.107,342.736 129,343.5C 126.914,343.081 125.414,341.914 124.5,340C 111.848,338.166 101.848,331.999 94.5,321.5C 93.8133,319.726 92.9799,318.059 92,316.5C 91.9209,312.642 91.2542,308.976 90,305.5C 89.3333,242.833 89.3333,180.167 90,117.5C 90.9852,105.207 96.8186,95.874 107.5,89.5C 114.057,87.6909 120.057,85.0242 125.5,81.5C 132.476,80.6689 139.476,80.1689 146.5,80C 147.252,79.3292 147.586,78.4959 147.5,77.5 Z"/></g>
<g><path style="opacity:0.998" fill="#f67822" d="M 264.5,284.5 C 262.952,284.821 262.285,285.821 262.5,287.5C 259.343,298.635 255.01,309.301 249.5,319.5C 245.167,320.833 240.833,320.833 236.5,319.5C 235.339,315.205 235.172,310.871 236,306.5C 248.119,279.284 258.785,251.618 268,223.5C 278.013,201.813 286.679,179.48 294,156.5C 299.921,140.65 306.421,124.983 313.5,109.5C 314.382,108.24 315.382,107.074 316.5,106C 320.9,105.022 325.067,105.522 329,107.5C 329.667,110.5 329.667,113.5 329,116.5C 322.044,134.277 315.377,152.277 309,170.5C 307.333,173.167 305.667,175.833 304,178.5C 296.104,198.96 288.771,219.627 282,240.5C 274.343,254.481 268.51,269.148 264.5,284.5 Z"/></g>
<g><path style="opacity:1" fill="#fa7a23" d="M 217.5,146.5 C 221.182,146.335 224.848,146.501 228.5,147C 229.211,148.255 230.044,149.421 231,150.5C 231.828,155.202 231.662,159.869 230.5,164.5C 209.205,176.398 187.372,187.398 165,197.5C 162.495,199.34 159.995,201.173 157.5,203C 146.63,206.724 136.297,211.39 126.5,217C 132.171,219.337 137.338,222.503 142,226.5C 147.227,228.131 152.393,229.965 157.5,232C 167.65,238.409 178.317,243.742 189.5,248C 194.917,250.79 200.084,253.957 205,257.5C 206.364,256.742 207.531,257.242 208.5,259C 214.159,262.157 220.159,264.824 226.5,267C 228,268.5 229.5,270 231,271.5C 234.5,285.333 229.333,290.5 215.5,287C 200.395,278.449 184.728,270.949 168.5,264.5C 166.833,263 165.167,261.5 163.5,260C 153.537,255.461 143.537,251.128 133.5,247C 121.538,240.019 109.372,233.519 97,227.5C 95.424,221.612 95.0906,215.612 96,209.5C 96.8333,208.5 97.6667,207.5 98.5,206.5C 138.193,186.154 177.86,166.154 217.5,146.5 Z"/></g>
<g><path style="opacity:0.998" fill="#fb7b23" d="M 332.5,148.5 C 345.066,149.688 356.4,154.021 366.5,161.5C 371.715,163.94 377.048,166.107 382.5,168C 393.554,174.194 404.888,179.861 416.5,185C 429.398,190.783 442.065,197.116 454.5,204C 456.667,205.833 458.833,207.667 461,209.5C 461.667,215.5 461.667,221.5 461,227.5C 440.291,239.987 418.624,250.987 396,260.5C 393.797,262.69 391.297,264.523 388.5,266C 381.5,269 374.5,272 367.5,275C 360.156,279.002 352.823,283.002 345.5,287C 339.865,288.677 334.198,288.677 328.5,287C 326.49,282.391 325.99,277.558 327,272.5C 332.061,267.887 337.894,264.72 344.5,263C 352.062,257.264 360.395,253.264 369.5,251C 384.247,241.71 399.747,233.877 416,227.5C 420.859,223.965 425.693,220.465 430.5,217C 416.164,211.123 402.497,204.123 389.5,196C 381.817,193.954 374.817,190.621 368.5,186C 366.833,185.667 365.167,185.333 363.5,185C 352.568,178.115 341.235,172.115 329.5,167C 328.667,166.167 327.833,165.333 327,164.5C 326.333,160.167 326.333,155.833 327,151.5C 328.719,150.131 330.552,149.131 332.5,148.5 Z"/></g>
<g><path style="opacity:0.008" fill="#4e180a" d="M 264.5,284.5 C 264.068,285.71 263.401,286.71 262.5,287.5C 262.285,285.821 262.952,284.821 264.5,284.5 Z"/></g>
<g><path style="opacity:0.982" fill="#040203" d="M 157.5,370.5 C 240.167,370.333 322.834,370.5 405.5,371C 406.766,371.309 407.933,371.809 409,372.5C 411.152,377.273 410.985,381.939 408.5,386.5C 324.169,387.667 239.835,387.833 155.5,387C 153.522,383.067 153.022,378.9 154,374.5C 154.69,372.65 155.856,371.316 157.5,370.5 Z"/></g>
</svg>
